<svg xmlns="http://www.w3.org/2000/svg" xmlns:xlink="http://www.w3.org/1999/xlink" width="500" zoomAndPan="magnify" viewBox="0 0 375 374.999991" height="500" preserveAspectRatio="xMidYMid meet" version="1.0"><defs><clipPath id="13e8458ff5"><path d="M 103 110.59375 L 272 110.59375 L 272 264 L 103 264 Z M 103 110.59375 " clip-rule="nonzero"/></clipPath></defs><g clip-path="url(#13e8458ff5)"><path fill="#ffffff" d="M 110.871094 110.488281 C 110.367188 110.496094 109.871094 110.554688 109.378906 110.660156 C 108.886719 110.765625 108.410156 110.917969 107.949219 111.117188 C 107.488281 111.316406 107.050781 111.558594 106.636719 111.84375 C 106.222656 112.128906 105.839844 112.449219 105.492188 112.808594 C 105.140625 113.167969 104.828125 113.558594 104.554688 113.980469 C 104.28125 114.402344 104.054688 114.84375 103.867188 115.3125 C 103.683594 115.777344 103.542969 116.257812 103.453125 116.75 C 103.359375 117.246094 103.320312 117.742188 103.324219 118.242188 L 103.324219 255.929688 C 103.320312 256.4375 103.363281 256.941406 103.453125 257.4375 C 103.546875 257.9375 103.6875 258.421875 103.878906 258.890625 C 104.066406 259.359375 104.300781 259.808594 104.578125 260.230469 C 104.859375 260.65625 105.175781 261.046875 105.53125 261.410156 C 105.886719 261.769531 106.277344 262.09375 106.699219 262.375 C 107.117188 262.660156 107.5625 262.898438 108.03125 263.09375 C 108.5 263.292969 108.984375 263.4375 109.480469 263.539062 C 109.976562 263.636719 110.480469 263.6875 110.988281 263.6875 C 111.496094 263.6875 112 263.636719 112.496094 263.539062 C 112.996094 263.4375 113.476562 263.292969 113.945312 263.09375 C 114.414062 262.898438 114.859375 262.660156 115.28125 262.375 C 115.703125 262.09375 116.089844 261.769531 116.445312 261.410156 C 116.804688 261.046875 117.121094 260.65625 117.398438 260.230469 C 117.675781 259.808594 117.910156 259.359375 118.101562 258.890625 C 118.289062 258.421875 118.429688 257.9375 118.523438 257.4375 C 118.617188 256.941406 118.660156 256.4375 118.652344 255.929688 L 118.652344 118.242188 C 118.660156 117.730469 118.617188 117.222656 118.519531 116.722656 C 118.425781 116.21875 118.28125 115.730469 118.089844 115.257812 C 117.894531 114.78125 117.65625 114.332031 117.371094 113.90625 C 117.089844 113.480469 116.765625 113.085938 116.402344 112.722656 C 116.039062 112.363281 115.644531 112.039062 115.21875 111.757812 C 114.789062 111.476562 114.339844 111.238281 113.863281 111.046875 C 113.386719 110.855469 112.898438 110.710938 112.394531 110.617188 C 111.890625 110.523438 111.382812 110.480469 110.871094 110.488281 Z M 118.652344 187.207031 C 118.667969 188.199219 118.871094 189.152344 119.257812 190.070312 C 119.648438 190.984375 120.191406 191.792969 120.898438 192.496094 L 136.222656 207.792969 C 136.578125 208.160156 136.964844 208.488281 137.382812 208.78125 C 137.800781 209.070312 138.242188 209.316406 138.710938 209.519531 C 139.179688 209.71875 139.664062 209.875 140.160156 209.980469 C 140.660156 210.085938 141.164062 210.140625 141.675781 210.144531 C 142.183594 210.148438 142.691406 210.105469 143.191406 210.007812 C 143.691406 209.914062 144.175781 209.769531 144.648438 209.578125 C 145.121094 209.386719 145.570312 209.148438 145.996094 208.867188 C 146.417969 208.585938 146.8125 208.265625 147.171875 207.90625 C 147.53125 207.546875 147.855469 207.152344 148.136719 206.730469 C 148.417969 206.304688 148.65625 205.859375 148.847656 205.386719 C 149.039062 204.914062 149.183594 204.429688 149.28125 203.929688 C 149.375 203.429688 149.421875 202.925781 149.417969 202.417969 C 149.410156 201.910156 149.355469 201.40625 149.25 200.90625 C 149.144531 200.410156 148.988281 199.925781 148.789062 199.460938 C 148.585938 198.992188 148.339844 198.550781 148.046875 198.132812 C 147.757812 197.714844 147.429688 197.328125 147.058594 196.976562 L 144.816406 194.734375 L 230.429688 194.734375 L 228.183594 196.976562 C 227.816406 197.328125 227.488281 197.714844 227.195312 198.132812 C 226.90625 198.550781 226.660156 198.992188 226.457031 199.460938 C 226.253906 199.925781 226.101562 200.410156 225.996094 200.90625 C 225.886719 201.40625 225.832031 201.910156 225.828125 202.417969 C 225.824219 202.925781 225.867188 203.429688 225.964844 203.929688 C 226.058594 204.429688 226.203125 204.914062 226.394531 205.386719 C 226.589844 205.859375 226.824219 206.304688 227.109375 206.730469 C 227.390625 207.152344 227.710938 207.546875 228.070312 207.90625 C 228.433594 208.265625 228.824219 208.585938 229.25 208.867188 C 229.675781 209.148438 230.121094 209.386719 230.59375 209.578125 C 231.066406 209.769531 231.554688 209.914062 232.054688 210.007812 C 232.554688 210.105469 233.058594 210.148438 233.570312 210.144531 C 234.078125 210.140625 234.582031 210.085938 235.082031 209.980469 C 235.582031 209.875 236.0625 209.71875 236.53125 209.519531 C 237 209.316406 237.445312 209.070312 237.863281 208.78125 C 238.28125 208.488281 238.667969 208.160156 239.019531 207.792969 L 254.347656 192.496094 C 255.078125 191.761719 255.640625 190.917969 256.03125 189.957031 C 256.421875 189 256.609375 188.003906 256.589844 186.96875 C 256.574219 185.972656 256.375 185.019531 255.984375 184.105469 C 255.597656 183.191406 255.050781 182.382812 254.347656 181.679688 L 239.019531 166.378906 C 238.296875 165.640625 237.460938 165.070312 236.507812 164.667969 C 235.554688 164.265625 234.5625 164.0625 233.527344 164.0625 C 232.765625 164.066406 232.019531 164.175781 231.289062 164.398438 C 230.5625 164.621094 229.878906 164.945312 229.25 165.367188 C 228.617188 165.792969 228.058594 166.300781 227.578125 166.890625 C 227.097656 167.484375 226.714844 168.128906 226.429688 168.835938 C 226.140625 169.539062 225.964844 170.273438 225.894531 171.03125 C 225.828125 171.789062 225.871094 172.539062 226.027344 173.285156 C 226.183594 174.027344 226.445312 174.734375 226.8125 175.402344 C 227.179688 176.066406 227.636719 176.664062 228.183594 177.195312 L 230.429688 179.4375 L 144.816406 179.4375 L 147.058594 177.195312 C 147.613281 176.660156 148.074219 176.050781 148.445312 175.375 C 148.816406 174.699219 149.078125 173.984375 149.230469 173.226562 C 149.382812 172.472656 149.421875 171.710938 149.34375 170.945312 C 149.265625 170.175781 149.078125 169.4375 148.777344 168.730469 C 148.476562 168.019531 148.078125 167.371094 147.578125 166.78125 C 147.082031 166.191406 146.507812 165.6875 145.855469 165.273438 C 145.207031 164.855469 144.511719 164.546875 143.765625 164.339844 C 143.023438 164.132812 142.265625 164.042969 141.492188 164.0625 C 140.496094 164.09375 139.542969 164.308594 138.632812 164.710938 C 137.722656 165.109375 136.917969 165.667969 136.222656 166.378906 L 120.898438 181.679688 C 120.164062 182.410156 119.601562 183.253906 119.214844 184.214844 C 118.824219 185.175781 118.636719 186.171875 118.652344 187.207031 Z M 256.589844 186.96875 L 256.589844 255.929688 C 256.585938 256.4375 256.628906 256.941406 256.71875 257.4375 C 256.8125 257.9375 256.953125 258.421875 257.144531 258.890625 C 257.332031 259.359375 257.566406 259.808594 257.84375 260.230469 C 258.125 260.65625 258.441406 261.046875 258.796875 261.410156 C 259.152344 261.769531 259.542969 262.09375 259.964844 262.375 C 260.382812 262.660156 260.828125 262.898438 261.296875 263.09375 C 261.765625 263.292969 262.25 263.4375 262.746094 263.539062 C 263.246094 263.636719 263.746094 263.6875 264.253906 263.6875 C 264.761719 263.6875 265.265625 263.636719 265.761719 263.539062 C 266.261719 263.4375 266.746094 263.292969 267.210938 263.09375 C 267.679688 262.898438 268.125 262.660156 268.546875 262.375 C 268.96875 262.09375 269.355469 261.769531 269.710938 261.410156 C 270.070312 261.046875 270.386719 260.65625 270.664062 260.230469 C 270.941406 259.808594 271.175781 259.359375 271.367188 258.890625 C 271.554688 258.421875 271.695312 257.9375 271.789062 257.4375 C 271.882812 256.941406 271.925781 256.4375 271.917969 255.929688 L 271.917969 118.242188 C 271.925781 117.730469 271.882812 117.222656 271.785156 116.722656 C 271.691406 116.21875 271.546875 115.730469 271.355469 115.257812 C 271.160156 114.78125 270.921875 114.332031 270.640625 113.90625 C 270.355469 113.480469 270.03125 113.085938 269.667969 112.722656 C 269.304688 112.363281 268.910156 112.039062 268.484375 111.757812 C 268.054688 111.476562 267.605469 111.238281 267.128906 111.046875 C 266.652344 110.855469 266.164062 110.710938 265.660156 110.617188 C 265.15625 110.523438 264.648438 110.480469 264.136719 110.488281 C 263.632812 110.496094 263.136719 110.554688 262.644531 110.660156 C 262.152344 110.765625 261.675781 110.917969 261.214844 111.117188 C 260.753906 111.316406 260.316406 111.558594 259.902344 111.84375 C 259.488281 112.128906 259.105469 112.449219 258.757812 112.808594 C 258.40625 113.167969 258.09375 113.558594 257.820312 113.980469 C 257.546875 114.402344 257.320312 114.84375 257.132812 115.3125 C 256.949219 115.777344 256.808594 116.257812 256.71875 116.75 C 256.625 117.246094 256.585938 117.742188 256.589844 118.242188 Z M 141.640625 110.59375 C 141.140625 110.59375 140.640625 110.644531 140.148438 110.742188 C 139.652344 110.839844 139.175781 110.984375 138.710938 111.175781 C 138.246094 111.367188 137.804688 111.605469 137.382812 111.882812 C 136.964844 112.164062 136.578125 112.480469 136.222656 112.835938 C 135.867188 113.191406 135.550781 113.578125 135.269531 113.992188 C 134.992188 114.410156 134.753906 114.851562 134.5625 115.316406 C 134.371094 115.78125 134.222656 116.257812 134.125 116.75 C 134.027344 117.242188 133.980469 117.742188 133.980469 118.242188 C 133.980469 118.746094 134.027344 119.242188 134.125 119.734375 C 134.222656 120.226562 134.371094 120.707031 134.5625 121.171875 C 134.753906 121.636719 134.992188 122.074219 135.269531 122.492188 C 135.550781 122.910156 135.867188 123.296875 136.222656 123.652344 C 136.578125 124.007812 136.964844 124.324219 137.382812 124.605469 C 137.804688 124.882812 138.246094 125.117188 138.710938 125.308594 C 139.175781 125.503906 139.652344 125.648438 140.148438 125.746094 C 140.640625 125.84375 141.140625 125.894531 141.640625 125.894531 C 142.144531 125.894531 142.644531 125.84375 143.136719 125.746094 C 143.628906 125.648438 144.109375 125.503906 144.574219 125.308594 C 145.039062 125.117188 145.480469 124.882812 145.898438 124.605469 C 146.316406 124.324219 146.707031 124.007812 147.0625 123.652344 C 147.417969 123.296875 147.734375 122.910156 148.015625 122.492188 C 148.292969 122.074219 148.53125 121.636719 148.722656 121.171875 C 148.914062 120.707031 149.058594 120.226562 149.160156 119.734375 C 149.257812 119.242188 149.304688 118.746094 149.304688 118.242188 C 149.304688 117.742188 149.257812 117.242188 149.160156 116.75 C 149.058594 116.257812 148.914062 115.78125 148.722656 115.316406 C 148.53125 114.851562 148.292969 114.410156 148.015625 113.992188 C 147.734375 113.578125 147.417969 113.191406 147.0625 112.835938 C 146.707031 112.480469 146.316406 112.164062 145.898438 111.882812 C 145.480469 111.605469 145.039062 111.367188 144.574219 111.175781 C 144.109375 110.984375 143.628906 110.839844 143.136719 110.742188 C 142.644531 110.644531 142.144531 110.59375 141.640625 110.59375 Z M 172.296875 110.59375 C 171.792969 110.59375 171.292969 110.644531 170.800781 110.742188 C 170.308594 110.839844 169.828125 110.984375 169.363281 111.175781 C 168.898438 111.367188 168.457031 111.605469 168.039062 111.882812 C 167.621094 112.164062 167.234375 112.480469 166.875 112.835938 C 166.519531 113.191406 166.203125 113.578125 165.921875 113.992188 C 165.644531 114.410156 165.40625 114.851562 165.214844 115.316406 C 165.023438 115.78125 164.878906 116.257812 164.78125 116.75 C 164.679688 117.242188 164.632812 117.742188 164.632812 118.242188 C 164.632812 118.746094 164.679688 119.242188 164.78125 119.734375 C 164.878906 120.226562 165.023438 120.707031 165.214844 121.171875 C 165.40625 121.636719 165.644531 122.074219 165.921875 122.492188 C 166.203125 122.910156 166.519531 123.296875 166.875 123.652344 C 167.234375 124.007812 167.621094 124.324219 168.039062 124.605469 C 168.457031 124.882812 168.898438 125.117188 169.363281 125.308594 C 169.828125 125.503906 170.308594 125.648438 170.800781 125.746094 C 171.292969 125.84375 171.792969 125.894531 172.296875 125.894531 C 172.796875 125.894531 173.296875 125.84375 173.789062 125.746094 C 174.285156 125.648438 174.761719 125.503906 175.226562 125.308594 C 175.691406 125.117188 176.132812 124.882812 176.554688 124.605469 C 176.972656 124.324219 177.359375 124.007812 177.714844 123.652344 C 178.070312 123.296875 178.386719 122.910156 178.667969 122.492188 C 178.945312 122.074219 179.183594 121.636719 179.375 121.171875 C 179.566406 120.707031 179.714844 120.226562 179.8125 119.734375 C 179.910156 119.242188 179.957031 118.746094 179.957031 118.242188 C 179.957031 117.742188 179.910156 117.242188 179.8125 116.75 C 179.714844 116.257812 179.566406 115.78125 179.375 115.316406 C 179.183594 114.851562 178.945312 114.410156 178.667969 113.992188 C 178.386719 113.578125 178.070312 113.191406 177.714844 112.835938 C 177.359375 112.480469 176.972656 112.164062 176.554688 111.882812 C 176.132812 111.605469 175.691406 111.367188 175.226562 111.175781 C 174.761719 110.984375 174.285156 110.839844 173.789062 110.742188 C 173.296875 110.644531 172.796875 110.59375 172.296875 110.59375 Z M 202.949219 110.59375 C 202.445312 110.59375 201.945312 110.644531 201.453125 110.742188 C 200.960938 110.839844 200.480469 110.984375 200.015625 111.175781 C 199.550781 111.367188 199.109375 111.605469 198.691406 111.882812 C 198.273438 112.164062 197.886719 112.480469 197.53125 112.835938 C 197.175781 113.191406 196.855469 113.578125 196.578125 113.992188 C 196.296875 114.410156 196.0625 114.851562 195.867188 115.316406 C 195.675781 115.78125 195.53125 116.257812 195.433594 116.75 C 195.335938 117.242188 195.285156 117.742188 195.285156 118.242188 C 195.285156 118.746094 195.335938 119.242188 195.433594 119.734375 C 195.53125 120.226562 195.675781 120.707031 195.867188 121.171875 C 196.0625 121.636719 196.296875 122.074219 196.578125 122.492188 C 196.855469 122.910156 197.175781 123.296875 197.53125 123.652344 C 197.886719 124.007812 198.273438 124.324219 198.691406 124.605469 C 199.109375 124.882812 199.550781 125.117188 200.015625 125.308594 C 200.480469 125.503906 200.960938 125.648438 201.453125 125.746094 C 201.945312 125.84375 202.445312 125.894531 202.949219 125.894531 C 203.453125 125.894531 203.949219 125.84375 204.445312 125.746094 C 204.9375 125.648438 205.417969 125.503906 205.882812 125.308594 C 206.347656 125.117188 206.789062 124.882812 207.207031 124.605469 C 207.625 124.324219 208.011719 124.007812 208.367188 123.652344 C 208.722656 123.296875 209.039062 122.910156 209.320312 122.492188 C 209.601562 122.074219 209.835938 121.636719 210.027344 121.171875 C 210.222656 120.707031 210.367188 120.226562 210.464844 119.734375 C 210.5625 119.242188 210.613281 118.746094 210.613281 118.242188 C 210.613281 117.742188 210.5625 117.242188 210.464844 116.75 C 210.367188 116.257812 210.222656 115.78125 210.027344 115.316406 C 209.835938 114.851562 209.601562 114.410156 209.320312 113.992188 C 209.039062 113.578125 208.722656 113.191406 208.367188 112.835938 C 208.011719 112.480469 207.625 112.164062 207.207031 111.882812 C 206.789062 111.605469 206.347656 111.367188 205.882812 111.175781 C 205.417969 110.984375 204.9375 110.839844 204.445312 110.742188 C 203.949219 110.644531 203.453125 110.59375 202.949219 110.59375 Z M 233.601562 110.59375 C 233.097656 110.59375 232.601562 110.644531 232.105469 110.742188 C 231.613281 110.839844 231.132812 110.984375 230.667969 111.175781 C 230.203125 111.367188 229.761719 111.605469 229.34375 111.882812 C 228.925781 112.164062 228.539062 112.480469 228.183594 112.835938 C 227.828125 113.191406 227.507812 113.578125 227.230469 113.992188 C 226.949219 114.410156 226.714844 114.851562 226.523438 115.316406 C 226.328125 115.78125 226.183594 116.257812 226.085938 116.75 C 225.988281 117.242188 225.9375 117.742188 225.9375 118.242188 C 225.9375 118.746094 225.988281 119.242188 226.085938 119.734375 C 226.183594 120.226562 226.328125 120.707031 226.523438 121.171875 C 226.714844 121.636719 226.949219 122.074219 227.230469 122.492188 C 227.507812 122.910156 227.828125 123.296875 228.183594 123.652344 C 228.539062 124.007812 228.925781 124.324219 229.34375 124.605469 C 229.761719 124.882812 230.203125 125.117188 230.667969 125.308594 C 231.132812 125.503906 231.613281 125.648438 232.105469 125.746094 C 232.601562 125.84375 233.097656 125.894531 233.601562 125.894531 C 234.105469 125.894531 234.601562 125.84375 235.097656 125.746094 C 235.589844 125.648438 236.070312 125.503906 236.535156 125.308594 C 237 125.117188 237.441406 124.882812 237.859375 124.605469 C 238.277344 124.324219 238.664062 124.007812 239.019531 123.652344 C 239.375 123.296875 239.695312 122.910156 239.972656 122.492188 C 240.253906 122.074219 240.488281 121.636719 240.683594 121.171875 C 240.875 120.707031 241.019531 120.226562 241.117188 119.734375 C 241.214844 119.242188 241.265625 118.746094 241.265625 118.242188 C 241.265625 117.742188 241.214844 117.242188 241.117188 116.75 C 241.019531 116.257812 240.875 115.78125 240.683594 115.316406 C 240.488281 114.851562 240.253906 114.410156 239.972656 113.992188 C 239.695312 113.578125 239.375 113.191406 239.019531 112.835938 C 238.664062 112.480469 238.277344 112.164062 237.859375 111.882812 C 237.441406 111.605469 237 111.367188 236.535156 111.175781 C 236.070312 110.984375 235.589844 110.839844 235.097656 110.742188 C 234.601562 110.644531 234.105469 110.59375 233.601562 110.59375 Z M 141.640625 248.28125 C 141.140625 248.28125 140.640625 248.328125 140.148438 248.429688 C 139.652344 248.527344 139.175781 248.671875 138.710938 248.863281 C 138.246094 249.054688 137.804688 249.289062 137.382812 249.570312 C 136.964844 249.847656 136.578125 250.167969 136.222656 250.519531 C 135.867188 250.875 135.550781 251.261719 135.269531 251.679688 C 134.992188 252.097656 134.753906 252.539062 134.5625 253.003906 C 134.371094 253.46875 134.222656 253.945312 134.125 254.4375 C 134.027344 254.929688 133.980469 255.429688 133.980469 255.929688 C 133.980469 256.433594 134.027344 256.929688 134.125 257.421875 C 134.222656 257.914062 134.371094 258.394531 134.5625 258.855469 C 134.753906 259.320312 134.992188 259.761719 135.269531 260.179688 C 135.550781 260.597656 135.867188 260.984375 136.222656 261.339844 C 136.578125 261.695312 136.964844 262.011719 137.382812 262.289062 C 137.804688 262.570312 138.246094 262.804688 138.710938 262.996094 C 139.175781 263.1875 139.652344 263.335938 140.148438 263.433594 C 140.640625 263.53125 141.140625 263.578125 141.640625 263.578125 C 142.144531 263.578125 142.644531 263.53125 143.136719 263.433594 C 143.628906 263.335938 144.109375 263.1875 144.574219 262.996094 C 145.039062 262.804688 145.480469 262.570312 145.898438 262.289062 C 146.316406 262.011719 146.707031 261.695312 147.0625 261.339844 C 147.417969 260.984375 147.734375 260.597656 148.015625 260.179688 C 148.292969 259.761719 148.53125 259.320312 148.722656 258.855469 C 148.914062 258.394531 149.058594 257.914062 149.160156 257.421875 C 149.257812 256.929688 149.304688 256.433594 149.304688 255.929688 C 149.304688 255.429688 149.257812 254.929688 149.160156 254.4375 C 149.058594 253.945312 148.914062 253.46875 148.722656 253.003906 C 148.53125 252.539062 148.292969 252.097656 148.015625 251.679688 C 147.734375 251.261719 147.417969 250.875 147.0625 250.519531 C 146.707031 250.167969 146.316406 249.847656 145.898438 249.570312 C 145.480469 249.289062 145.039062 249.054688 144.574219 248.863281 C 144.109375 248.671875 143.628906 248.527344 143.136719 248.429688 C 142.644531 248.328125 142.144531 248.28125 141.640625 248.28125 Z M 172.296875 248.28125 C 171.792969 248.28125 171.292969 248.328125 170.800781 248.429688 C 170.308594 248.527344 169.828125 248.671875 169.363281 248.863281 C 168.898438 249.054688 168.457031 249.289062 168.039062 249.570312 C 167.621094 249.847656 167.234375 250.167969 166.875 250.519531 C 166.519531 250.875 166.203125 251.261719 165.921875 251.679688 C 165.644531 252.097656 165.40625 252.539062 165.214844 253.003906 C 165.023438 253.46875 164.878906 253.945312 164.78125 254.4375 C 164.679688 254.929688 164.632812 255.429688 164.632812 255.929688 C 164.632812 256.433594 164.679688 256.929688 164.78125 257.421875 C 164.878906 257.914062 165.023438 258.394531 165.214844 258.855469 C 165.40625 259.320312 165.644531 259.761719 165.921875 260.179688 C 166.203125 260.597656 166.519531 260.984375 166.875 261.339844 C 167.234375 261.695312 167.621094 262.011719 168.039062 262.289062 C 168.457031 262.570312 168.898438 262.804688 169.363281 262.996094 C 169.828125 263.1875 170.308594 263.335938 170.800781 263.433594 C 171.292969 263.53125 171.792969 263.578125 172.296875 263.578125 C 172.796875 263.578125 173.296875 263.53125 173.789062 263.433594 C 174.285156 263.335938 174.761719 263.1875 175.226562 262.996094 C 175.691406 262.804688 176.132812 262.570312 176.554688 262.289062 C 176.972656 262.011719 177.359375 261.695312 177.714844 261.339844 C 178.070312 260.984375 178.386719 260.597656 178.667969 260.179688 C 178.945312 259.761719 179.183594 259.320312 179.375 258.855469 C 179.566406 258.394531 179.714844 257.914062 179.8125 257.421875 C 179.910156 256.929688 179.957031 256.433594 179.957031 255.929688 C 179.957031 255.429688 179.910156 254.929688 179.8125 254.4375 C 179.714844 253.945312 179.566406 253.46875 179.375 253.003906 C 179.183594 252.539062 178.945312 252.097656 178.667969 251.679688 C 178.386719 251.261719 178.070312 250.875 177.714844 250.519531 C 177.359375 250.167969 176.972656 249.847656 176.554688 249.570312 C 176.132812 249.289062 175.691406 249.054688 175.226562 248.863281 C 174.761719 248.671875 174.285156 248.527344 173.789062 248.429688 C 173.296875 248.328125 172.796875 248.28125 172.296875 248.28125 Z M 202.949219 248.28125 C 202.445312 248.28125 201.945312 248.328125 201.453125 248.429688 C 200.960938 248.527344 200.480469 248.671875 200.015625 248.863281 C 199.550781 249.054688 199.109375 249.289062 198.691406 249.570312 C 198.273438 249.847656 197.886719 250.167969 197.53125 250.519531 C 197.175781 250.875 196.855469 251.261719 196.578125 251.679688 C 196.296875 252.097656 196.0625 252.539062 195.867188 253.003906 C 195.675781 253.46875 195.53125 253.945312 195.433594 254.4375 C 195.335938 254.929688 195.285156 255.429688 195.285156 255.929688 C 195.285156 256.433594 195.335938 256.929688 195.433594 257.421875 C 195.53125 257.914062 195.675781 258.394531 195.867188 258.855469 C 196.0625 259.320312 196.296875 259.761719 196.578125 260.179688 C 196.855469 260.597656 197.175781 260.984375 197.53125 261.339844 C 197.886719 261.695312 198.273438 262.011719 198.691406 262.289062 C 199.109375 262.570312 199.550781 262.804688 200.015625 262.996094 C 200.480469 263.1875 200.960938 263.335938 201.453125 263.433594 C 201.945312 263.53125 202.445312 263.578125 202.949219 263.578125 C 203.453125 263.578125 203.949219 263.53125 204.445312 263.433594 C 204.9375 263.335938 205.417969 263.1875 205.882812 262.996094 C 206.347656 262.804688 206.789062 262.570312 207.207031 262.289062 C 207.625 262.011719 208.011719 261.695312 208.367188 261.339844 C 208.722656 260.984375 209.039062 260.597656 209.320312 260.179688 C 209.601562 259.761719 209.835938 259.320312 210.027344 258.855469 C 210.222656 258.394531 210.367188 257.914062 210.464844 257.421875 C 210.5625 256.929688 210.613281 256.433594 210.613281 255.929688 C 210.613281 255.429688 210.5625 254.929688 210.464844 254.4375 C 210.367188 253.945312 210.222656 253.46875 210.027344 253.003906 C 209.835938 252.539062 209.601562 252.097656 209.320312 251.679688 C 209.039062 251.261719 208.722656 250.875 208.367188 250.519531 C 208.011719 250.167969 207.625 249.847656 207.207031 249.570312 C 206.789062 249.289062 206.347656 249.054688 205.882812 248.863281 C 205.417969 248.671875 204.9375 248.527344 204.445312 248.429688 C 203.949219 248.328125 203.453125 248.28125 202.949219 248.28125 Z M 233.601562 248.28125 C 233.097656 248.28125 232.601562 248.328125 232.105469 248.429688 C 231.613281 248.527344 231.132812 248.671875 230.667969 248.863281 C 230.203125 249.054688 229.761719 249.289062 229.34375 249.570312 C 228.925781 249.847656 228.539062 250.167969 228.183594 250.519531 C 227.828125 250.875 227.507812 251.261719 227.230469 251.679688 C 226.949219 252.097656 226.714844 252.539062 226.523438 253.003906 C 226.328125 253.46875 226.183594 253.945312 226.085938 254.4375 C 225.988281 254.929688 225.9375 255.429688 225.9375 255.929688 C 225.9375 256.433594 225.988281 256.929688 226.085938 257.421875 C 226.183594 257.914062 226.328125 258.394531 226.523438 258.855469 C 226.714844 259.320312 226.949219 259.761719 227.230469 260.179688 C 227.507812 260.597656 227.828125 260.984375 228.183594 261.339844 C 228.539062 261.695312 228.925781 262.011719 229.34375 262.289062 C 229.761719 262.570312 230.203125 262.804688 230.667969 262.996094 C 231.132812 263.1875 231.613281 263.335938 232.105469 263.433594 C 232.601562 263.53125 233.097656 263.578125 233.601562 263.578125 C 234.105469 263.578125 234.601562 263.53125 235.097656 263.433594 C 235.589844 263.335938 236.070312 263.1875 236.535156 262.996094 C 237 262.804688 237.441406 262.570312 237.859375 262.289062 C 238.277344 262.011719 238.664062 261.695312 239.019531 261.339844 C 239.375 260.984375 239.695312 260.597656 239.972656 260.179688 C 240.253906 259.761719 240.488281 259.320312 240.683594 258.855469 C 240.875 258.394531 241.019531 257.914062 241.117188 257.421875 C 241.214844 256.929688 241.265625 256.433594 241.265625 255.929688 C 241.265625 255.429688 241.214844 254.929688 241.117188 254.4375 C 241.019531 253.945312 240.875 253.46875 240.683594 253.003906 C 240.488281 252.539062 240.253906 252.097656 239.972656 251.679688 C 239.695312 251.261719 239.375 250.875 239.019531 250.519531 C 238.664062 250.167969 238.277344 249.847656 237.859375 249.570312 C 237.441406 249.289062 237 249.054688 236.535156 248.863281 C 236.070312 248.671875 235.589844 248.527344 235.097656 248.429688 C 234.601562 248.328125 234.105469 248.28125 233.601562 248.28125 Z M 233.601562 248.28125 " fill-opacity="1" fill-rule="nonzero"/></g><path fill="#0277b5" d="M 343.671875 0 L 31.515625 0 C 14.257812 0 0.375 14.070312 0.375 31.140625 L 0.375 343.859375 C 0.375 361.117188 14.445312 375 31.515625 375 L 343.484375 375 C 360.742188 375 374.625 360.929688 374.625 343.859375 L 374.625 31.140625 C 374.8125 14.070312 360.929688 0 343.671875 0 Z M 111.242188 309.34375 L 55.902344 309.34375 L 55.902344 143.132812 L 111.242188 143.132812 Z M 83.480469 123.0625 C 66.03125 123.0625 51.964844 108.992188 51.964844 91.546875 C 51.964844 74.097656 66.03125 60.03125 83.480469 60.03125 C 100.925781 60.03125 114.996094 74.097656 114.996094 91.546875 C 114.996094 108.992188 100.925781 123.0625 83.480469 123.0625 Z M 319.472656 309.34375 L 263.945312 309.34375 L 262.632812 210.667969 C 262.632812 210.667969 263.945312 184.40625 235.242188 184.59375 C 206.539062 184.78125 202.601562 210.667969 202.601562 210.667969 L 202.601562 309.34375 L 146.699219 309.34375 L 146.699219 143.132812 L 200.351562 143.132812 L 200.351562 166.019531 C 200.351562 166.019531 202.601562 158.515625 214.984375 149.699219 C 227.363281 140.882812 247.8125 139.007812 256.628906 139.382812 C 265.445312 139.757812 277.453125 138.257812 297.523438 152.136719 C 319.097656 166.957031 319.660156 205.789062 319.660156 205.789062 Z M 319.472656 309.34375 " fill-opacity="1" fill-rule="nonzero"/></svg>