<svg xmlns="http://www.w3.org/2000/svg" xmlns:xlink="http://www.w3.org/1999/xlink" width="500" zoomAndPan="magnify" viewBox="0 0 375 374.999991" height="500" preserveAspectRatio="xMidYMid meet" version="1.0"><defs><clipPath id="20d3e00ad2"><path d="M 151 164 L 221 164 L 221 315.359375 L 151 315.359375 Z M 151 164 " clip-rule="nonzero"/></clipPath><clipPath id="11a7612e87"><path d="M 166 59.609375 L 210 59.609375 L 210 107 L 166 107 Z M 166 59.609375 " clip-rule="nonzero"/></clipPath><clipPath id="7535001d3f"><path d="M 104.050781 121 L 151 121 L 151 165 L 104.050781 165 Z M 104.050781 121 " clip-rule="nonzero"/></clipPath><clipPath id="250aeaa97c"><path d="M 224 121 L 271.300781 121 L 271.300781 165 L 224 165 Z M 224 121 " clip-rule="nonzero"/></clipPath><clipPath id="f4742b19f5"><path d="M 0 0.84375 L 375 0.84375 L 375 375 L 0 375 Z M 0 0.84375 " clip-rule="nonzero"/></clipPath></defs><path fill="#ffffff" d="M 189.796875 111.730469 C 189.796875 112.011719 189.742188 112.28125 189.632812 112.539062 C 189.527344 112.800781 189.371094 113.027344 189.171875 113.226562 C 188.976562 113.425781 188.746094 113.578125 188.484375 113.6875 C 188.226562 113.792969 187.953125 113.847656 187.671875 113.847656 C 187.390625 113.847656 187.121094 113.792969 186.859375 113.6875 C 186.601562 113.578125 186.371094 113.425781 186.171875 113.226562 C 185.972656 113.027344 185.820312 112.800781 185.710938 112.539062 C 185.605469 112.28125 185.550781 112.011719 185.550781 111.730469 C 185.550781 111.449219 185.605469 111.179688 185.710938 110.921875 C 185.820312 110.660156 185.972656 110.433594 186.171875 110.234375 C 186.371094 110.035156 186.601562 109.882812 186.859375 109.773438 C 187.121094 109.667969 187.390625 109.613281 187.671875 109.613281 C 187.953125 109.613281 188.226562 109.667969 188.484375 109.773438 C 188.746094 109.882812 188.976562 110.035156 189.171875 110.234375 C 189.371094 110.433594 189.527344 110.660156 189.632812 110.921875 C 189.742188 111.179688 189.796875 111.449219 189.796875 111.730469 Z M 189.796875 111.730469 " fill-opacity="1" fill-rule="nonzero"/><path fill="#ffffff" d="M 189.574219 119.175781 C 189.574219 119.425781 189.527344 119.667969 189.429688 119.902344 C 189.335938 120.132812 189.195312 120.339844 189.019531 120.515625 C 188.839844 120.695312 188.632812 120.832031 188.402344 120.929688 C 188.167969 121.023438 187.925781 121.074219 187.671875 121.074219 C 187.421875 121.074219 187.179688 121.023438 186.945312 120.929688 C 186.710938 120.832031 186.507812 120.695312 186.328125 120.515625 C 186.148438 120.339844 186.011719 120.132812 185.914062 119.902344 C 185.820312 119.667969 185.769531 119.425781 185.769531 119.175781 C 185.769531 118.921875 185.820312 118.679688 185.914062 118.449219 C 186.011719 118.214844 186.148438 118.007812 186.328125 117.832031 C 186.507812 117.652344 186.710938 117.515625 186.945312 117.421875 C 187.179688 117.324219 187.421875 117.277344 187.671875 117.277344 C 187.925781 117.277344 188.167969 117.324219 188.402344 117.421875 C 188.632812 117.515625 188.839844 117.652344 189.019531 117.832031 C 189.195312 118.007812 189.335938 118.214844 189.429688 118.449219 C 189.527344 118.679688 189.574219 118.921875 189.574219 119.175781 Z M 189.574219 119.175781 " fill-opacity="1" fill-rule="nonzero"/><g clip-path="url(#20d3e00ad2)"><path fill="#ffffff" d="M 209.457031 305.152344 L 209.457031 242.746094 C 208.648438 242.296875 207.925781 241.710938 207.285156 240.992188 C 205.808594 239.335938 205.085938 237.203125 205.214844 234.988281 C 206.53125 212.558594 205.707031 198.890625 204.40625 190.65625 L 206.226562 190.144531 C 207.585938 198.613281 208.414062 212.488281 207.089844 235.09375 C 206.878906 238.652344 209.601562 241.707031 213.167969 241.914062 C 213.296875 241.921875 213.425781 241.925781 213.550781 241.925781 C 216.953125 241.925781 219.800781 239.277344 220.003906 235.847656 C 221.25 214.585938 220.828125 198.253906 218.71875 186.621094 C 217.03125 177.335938 214.269531 171.042969 210.410156 167.644531 C 208.042969 165.5625 205.730469 164.894531 204.0625 164.75 C 203.808594 164.71875 203.550781 164.679688 203.289062 164.679688 L 172.058594 164.679688 C 171.949219 164.679688 171.84375 164.707031 171.738281 164.714844 C 171.660156 164.714844 171.574219 164.730469 171.488281 164.734375 C 171.464844 164.738281 171.4375 164.742188 171.414062 164.746094 C 169.253906 164.871094 165.816406 165.75 162.296875 169.414062 C 160.21875 171.578125 158.382812 174.480469 156.800781 178.097656 C 154.707031 182.878906 153.054688 188.902344 151.859375 196.140625 C 151.035156 201.121094 153.808594 203.59375 155.035156 204.425781 C 156.417969 205.359375 157.839844 205.78125 159.375 205.78125 C 163.359375 205.78125 168.078125 202.945312 174.691406 198.972656 C 180.425781 195.527344 190.023438 189.753906 193.828125 190.109375 C 197.386719 190.433594 200.53125 187.816406 200.855469 184.265625 C 201.179688 180.71875 198.558594 177.578125 195 177.257812 C 186.972656 176.527344 176.902344 182.578125 168.019531 187.917969 C 167.601562 188.167969 167.160156 188.433594 166.710938 188.699219 C 167.816406 184.867188 168.972656 182.332031 169.964844 180.65625 L 171.910156 181.035156 C 171.394531 181.828125 170.78125 182.945312 170.136719 184.488281 C 177.902344 179.882812 186.324219 175.339844 193.648438 175.339844 C 194.164062 175.339844 194.675781 175.363281 195.167969 175.40625 C 199.742188 175.824219 203.121094 179.871094 202.707031 184.433594 C 202.3125 188.742188 198.753906 191.988281 194.425781 191.988281 C 194.171875 191.988281 193.917969 191.976562 193.660156 191.953125 C 193.597656 191.949219 193.539062 191.945312 193.476562 191.945312 C 189.984375 191.945312 180.320312 197.753906 175.675781 200.542969 C 171.882812 202.820312 169.039062 204.746094 165.804688 206.011719 L 165.804688 305.152344 C 165.804688 310.660156 170.390625 315.121094 175.910156 315.121094 C 181.429688 315.121094 186.015625 310.660156 186.015625 305.152344 L 186.015625 232.425781 L 189.246094 232.425781 L 189.246094 305.152344 C 189.246094 310.660156 193.832031 315.121094 199.351562 315.121094 C 204.871094 315.121094 209.457031 310.660156 209.457031 305.152344 Z M 209.457031 305.152344 " fill-opacity="1" fill-rule="nonzero"/></g><path fill="#ffffff" d="M 205.863281 141.972656 C 205.863281 142.570312 205.832031 143.160156 205.773438 143.753906 C 205.714844 144.34375 205.628906 144.929688 205.511719 145.515625 C 205.398438 146.097656 205.25 146.671875 205.078125 147.242188 C 204.90625 147.8125 204.707031 148.371094 204.476562 148.917969 C 204.25 149.46875 203.996094 150.003906 203.714844 150.527344 C 203.433594 151.050781 203.128906 151.5625 202.796875 152.054688 C 202.464844 152.550781 202.113281 153.027344 201.734375 153.488281 C 201.355469 153.945312 200.957031 154.386719 200.535156 154.804688 C 200.113281 155.226562 199.671875 155.625 199.210938 156 C 198.753906 156.378906 198.273438 156.734375 197.777344 157.0625 C 197.285156 157.394531 196.773438 157.699219 196.246094 157.976562 C 195.722656 158.257812 195.183594 158.511719 194.632812 158.738281 C 194.085938 158.96875 193.523438 159.167969 192.953125 159.339844 C 192.382812 159.511719 191.804688 159.65625 191.222656 159.773438 C 190.636719 159.886719 190.050781 159.976562 189.457031 160.035156 C 188.863281 160.09375 188.269531 160.121094 187.675781 160.121094 C 187.078125 160.121094 186.484375 160.09375 185.890625 160.035156 C 185.296875 159.976562 184.710938 159.886719 184.125 159.773438 C 183.542969 159.65625 182.964844 159.511719 182.394531 159.339844 C 181.824219 159.167969 181.265625 158.96875 180.714844 158.738281 C 180.164062 158.511719 179.625 158.257812 179.101562 157.976562 C 178.574219 157.699219 178.066406 157.394531 177.570312 157.0625 C 177.074219 156.734375 176.597656 156.378906 176.136719 156 C 175.675781 155.625 175.234375 155.226562 174.8125 154.804688 C 174.390625 154.386719 173.992188 153.945312 173.613281 153.488281 C 173.238281 153.027344 172.882812 152.550781 172.550781 152.054688 C 172.21875 151.5625 171.914062 151.050781 171.632812 150.527344 C 171.351562 150.003906 171.097656 149.46875 170.871094 148.917969 C 170.640625 148.371094 170.441406 147.8125 170.269531 147.242188 C 170.097656 146.671875 169.953125 146.097656 169.835938 145.515625 C 169.71875 144.929688 169.632812 144.34375 169.574219 143.753906 C 169.515625 143.160156 169.484375 142.570312 169.484375 141.972656 C 169.484375 141.378906 169.515625 140.785156 169.574219 140.195312 C 169.632812 139.605469 169.71875 139.015625 169.835938 138.433594 C 169.953125 137.851562 170.097656 137.273438 170.269531 136.707031 C 170.441406 136.136719 170.640625 135.578125 170.871094 135.03125 C 171.097656 134.480469 171.351562 133.945312 171.632812 133.417969 C 171.914062 132.894531 172.21875 132.386719 172.550781 131.890625 C 172.882812 131.398438 173.238281 130.921875 173.613281 130.460938 C 173.992188 130.003906 174.390625 129.5625 174.8125 129.140625 C 175.234375 128.722656 175.675781 128.324219 176.136719 127.945312 C 176.597656 127.570312 177.074219 127.214844 177.570312 126.886719 C 178.066406 126.554688 178.574219 126.25 179.101562 125.96875 C 179.625 125.691406 180.164062 125.4375 180.714844 125.207031 C 181.265625 124.980469 181.824219 124.78125 182.394531 124.609375 C 182.964844 124.4375 183.542969 124.292969 184.125 124.175781 C 184.710938 124.058594 185.296875 123.972656 185.890625 123.914062 C 186.484375 123.855469 187.078125 123.828125 187.675781 123.828125 C 188.269531 123.828125 188.863281 123.855469 189.457031 123.914062 C 190.050781 123.972656 190.636719 124.058594 191.222656 124.175781 C 191.804688 124.292969 192.382812 124.4375 192.953125 124.609375 C 193.523438 124.78125 194.085938 124.980469 194.632812 125.207031 C 195.183594 125.4375 195.722656 125.691406 196.246094 125.96875 C 196.773438 126.25 197.285156 126.554688 197.777344 126.886719 C 198.273438 127.214844 198.753906 127.570312 199.210938 127.945312 C 199.671875 128.324219 200.113281 128.722656 200.535156 129.140625 C 200.957031 129.5625 201.355469 130.003906 201.734375 130.460938 C 202.113281 130.921875 202.464844 131.398438 202.796875 131.890625 C 203.128906 132.386719 203.433594 132.894531 203.714844 133.417969 C 203.996094 133.945312 204.25 134.480469 204.476562 135.03125 C 204.707031 135.578125 204.90625 136.136719 205.078125 136.707031 C 205.25 137.273438 205.398438 137.851562 205.511719 138.433594 C 205.628906 139.015625 205.714844 139.605469 205.773438 140.195312 C 205.832031 140.785156 205.863281 141.378906 205.863281 141.972656 Z M 205.863281 141.972656 " fill-opacity="1" fill-rule="nonzero"/><g clip-path="url(#11a7612e87)"><path fill="#ffffff" d="M 187.671875 59.8125 C 175.726562 59.8125 166.042969 69.476562 166.042969 81.394531 C 166.042969 91.992188 173.703125 100.804688 183.796875 102.625 C 183.992188 104.601562 185.640625 106.152344 187.671875 106.152344 C 189.703125 106.152344 191.355469 104.601562 191.546875 102.625 C 201.644531 100.804688 209.304688 91.996094 209.304688 81.394531 C 209.304688 69.476562 199.621094 59.8125 187.671875 59.8125 Z M 187.671875 99.992188 C 177.824219 99.992188 169.835938 92.027344 169.835938 82.199219 C 169.835938 72.371094 177.824219 64.402344 187.671875 64.402344 C 197.523438 64.402344 205.507812 72.371094 205.507812 82.199219 C 205.507812 92.027344 197.523438 99.992188 187.671875 99.992188 Z M 187.671875 99.992188 " fill-opacity="1" fill-rule="nonzero"/></g><path fill="#ffffff" d="M 187.621094 68.082031 C 190.917969 74.214844 187.089844 79.503906 187.089844 79.503906 C 187.089844 79.503906 187.558594 74.730469 182.355469 72.136719 C 183.722656 81.285156 179.421875 80.382812 178.53125 85.621094 C 177.667969 90.710938 181.976562 94.308594 187.546875 94.355469 C 200.808594 94.460938 202.75 76.042969 187.621094 68.082031 Z M 190.675781 91.238281 C 188.710938 92.117188 176.242188 92.070312 184.058594 81.789062 C 184.058594 81.789062 184.742188 86.496094 187.414062 86.277344 C 190.082031 86.054688 190.855469 80.984375 190.796875 78.117188 C 192.398438 79.828125 198.273438 87.835938 190.675781 91.238281 Z M 190.675781 91.238281 " fill-opacity="1" fill-rule="nonzero"/><path fill="#ffffff" d="M 160.972656 111.246094 C 166.824219 102.832031 165.996094 91.199219 158.484375 83.703125 C 150.035156 75.273438 136.339844 75.273438 127.890625 83.703125 C 119.445312 92.132812 119.445312 105.796875 127.890625 114.226562 C 135.402344 121.722656 147.0625 122.546875 155.496094 116.710938 C 157.03125 117.972656 159.296875 117.90625 160.734375 116.472656 C 162.171875 115.039062 162.238281 112.777344 160.972656 111.246094 Z M 131.144531 112.117188 C 124.179688 105.167969 124.179688 93.898438 131.144531 86.949219 C 138.109375 80 149.402344 80 156.367188 86.949219 C 163.335938 93.898438 163.335938 105.167969 156.367188 112.117188 C 149.402344 119.066406 138.109375 119.066406 131.144531 112.117188 Z M 131.144531 112.117188 " fill-opacity="1" fill-rule="nonzero"/><path fill="#ffffff" d="M 166.1875 118.917969 C 166.386719 119.117188 166.539062 119.347656 166.648438 119.605469 C 166.753906 119.863281 166.808594 120.136719 166.808594 120.414062 C 166.808594 120.695312 166.753906 120.964844 166.648438 121.226562 C 166.539062 121.484375 166.386719 121.714844 166.1875 121.914062 C 165.988281 122.113281 165.757812 122.265625 165.5 122.371094 C 165.238281 122.480469 164.96875 122.53125 164.6875 122.53125 C 164.40625 122.53125 164.132812 122.480469 163.875 122.371094 C 163.613281 122.265625 163.386719 122.113281 163.1875 121.914062 C 162.988281 121.714844 162.832031 121.484375 162.726562 121.226562 C 162.617188 120.964844 162.566406 120.695312 162.566406 120.414062 C 162.566406 120.136719 162.617188 119.863281 162.726562 119.605469 C 162.832031 119.347656 162.988281 119.117188 163.1875 118.917969 C 163.386719 118.71875 163.613281 118.566406 163.875 118.460938 C 164.132812 118.351562 164.40625 118.296875 164.6875 118.296875 C 164.96875 118.296875 165.238281 118.351562 165.5 118.460938 C 165.757812 118.566406 165.988281 118.71875 166.1875 118.917969 Z M 166.1875 118.917969 " fill-opacity="1" fill-rule="nonzero"/><path fill="#ffffff" d="M 171.308594 124.339844 C 171.484375 124.515625 171.625 124.722656 171.71875 124.953125 C 171.816406 125.1875 171.863281 125.429688 171.863281 125.679688 C 171.863281 125.933594 171.816406 126.175781 171.71875 126.40625 C 171.625 126.640625 171.484375 126.84375 171.308594 127.023438 C 171.128906 127.203125 170.921875 127.339844 170.691406 127.433594 C 170.457031 127.53125 170.214844 127.578125 169.960938 127.578125 C 169.710938 127.578125 169.46875 127.53125 169.234375 127.433594 C 169 127.339844 168.792969 127.203125 168.617188 127.023438 C 168.4375 126.84375 168.300781 126.640625 168.203125 126.40625 C 168.105469 126.175781 168.058594 125.933594 168.058594 125.679688 C 168.058594 125.429688 168.105469 125.1875 168.203125 124.953125 C 168.300781 124.722656 168.4375 124.515625 168.617188 124.339844 C 168.792969 124.160156 169 124.023438 169.234375 123.925781 C 169.46875 123.832031 169.710938 123.78125 169.960938 123.78125 C 170.214844 123.78125 170.457031 123.832031 170.691406 123.925781 C 170.921875 124.023438 171.128906 124.160156 171.308594 124.339844 Z M 171.308594 124.339844 " fill-opacity="1" fill-rule="nonzero"/><g clip-path="url(#7535001d3f)"><path fill="#ffffff" d="M 150.496094 143.285156 C 150.496094 141.257812 148.945312 139.613281 146.964844 139.421875 C 145.136719 129.347656 136.308594 121.703125 125.683594 121.703125 C 113.738281 121.703125 104.050781 131.367188 104.050781 143.285156 C 104.050781 155.207031 113.738281 164.867188 125.683594 164.867188 C 136.308594 164.867188 145.136719 157.226562 146.964844 147.152344 C 148.945312 146.960938 150.496094 145.3125 150.496094 143.285156 Z M 126.488281 161.082031 C 116.636719 161.082031 108.652344 153.113281 108.652344 143.285156 C 108.652344 133.457031 116.636719 125.492188 126.488281 125.492188 C 136.339844 125.492188 144.324219 133.457031 144.324219 143.285156 C 144.324219 153.113281 136.339844 161.082031 126.488281 161.082031 Z M 126.488281 161.082031 " fill-opacity="1" fill-rule="nonzero"/></g><path fill="#ffffff" d="M 158.210938 143.285156 C 158.210938 143.566406 158.15625 143.835938 158.050781 144.097656 C 157.941406 144.355469 157.789062 144.585938 157.589844 144.785156 C 157.390625 144.980469 157.160156 145.136719 156.902344 145.242188 C 156.640625 145.351562 156.371094 145.402344 156.089844 145.402344 C 155.808594 145.402344 155.535156 145.351562 155.277344 145.242188 C 155.015625 145.136719 154.789062 144.980469 154.589844 144.785156 C 154.390625 144.585938 154.234375 144.355469 154.128906 144.097656 C 154.019531 143.835938 153.96875 143.566406 153.96875 143.285156 C 153.96875 143.003906 154.019531 142.734375 154.128906 142.476562 C 154.234375 142.214844 154.390625 141.988281 154.589844 141.789062 C 154.789062 141.589844 155.015625 141.4375 155.277344 141.332031 C 155.535156 141.222656 155.808594 141.167969 156.089844 141.167969 C 156.371094 141.167969 156.640625 141.222656 156.902344 141.332031 C 157.160156 141.4375 157.390625 141.589844 157.589844 141.789062 C 157.789062 141.988281 157.941406 142.214844 158.050781 142.476562 C 158.15625 142.734375 158.210938 143.003906 158.210938 143.285156 Z M 158.210938 143.285156 " fill-opacity="1" fill-rule="nonzero"/><path fill="#ffffff" d="M 165.453125 143.285156 C 165.453125 143.539062 165.402344 143.78125 165.308594 144.011719 C 165.210938 144.246094 165.074219 144.449219 164.894531 144.628906 C 164.714844 144.808594 164.511719 144.945312 164.277344 145.039062 C 164.042969 145.136719 163.800781 145.183594 163.550781 145.183594 C 163.296875 145.183594 163.054688 145.136719 162.820312 145.039062 C 162.589844 144.945312 162.382812 144.808594 162.203125 144.628906 C 162.023438 144.449219 161.886719 144.246094 161.792969 144.011719 C 161.695312 143.78125 161.644531 143.539062 161.644531 143.285156 C 161.644531 143.035156 161.695312 142.792969 161.792969 142.558594 C 161.886719 142.328125 162.023438 142.121094 162.203125 141.945312 C 162.382812 141.765625 162.589844 141.628906 162.820312 141.53125 C 163.054688 141.4375 163.296875 141.386719 163.550781 141.386719 C 163.800781 141.386719 164.042969 141.4375 164.277344 141.53125 C 164.511719 141.628906 164.714844 141.765625 164.894531 141.945312 C 165.074219 142.121094 165.210938 142.328125 165.308594 142.558594 C 165.402344 142.792969 165.453125 143.035156 165.453125 143.285156 Z M 165.453125 143.285156 " fill-opacity="1" fill-rule="nonzero"/><path fill="#ffffff" d="M 212.160156 118.921875 C 212.355469 119.121094 212.511719 119.347656 212.617188 119.609375 C 212.726562 119.867188 212.78125 120.136719 212.78125 120.417969 C 212.78125 120.699219 212.726562 120.96875 212.617188 121.226562 C 212.511719 121.488281 212.355469 121.714844 212.160156 121.914062 C 211.960938 122.113281 211.730469 122.265625 211.46875 122.375 C 211.210938 122.480469 210.9375 122.535156 210.65625 122.535156 C 210.375 122.535156 210.105469 122.480469 209.847656 122.375 C 209.585938 122.265625 209.355469 122.113281 209.15625 121.914062 C 208.957031 121.714844 208.804688 121.488281 208.699219 121.226562 C 208.589844 120.96875 208.535156 120.699219 208.535156 120.417969 C 208.535156 120.136719 208.589844 119.867188 208.699219 119.609375 C 208.804688 119.347656 208.957031 119.121094 209.15625 118.921875 C 209.355469 118.722656 209.585938 118.570312 209.847656 118.460938 C 210.105469 118.355469 210.375 118.300781 210.65625 118.300781 C 210.9375 118.300781 211.210938 118.355469 211.46875 118.460938 C 211.730469 118.570312 211.960938 118.722656 212.160156 118.921875 Z M 212.160156 118.921875 " fill-opacity="1" fill-rule="nonzero"/><path fill="#ffffff" d="M 206.726562 124.339844 C 206.90625 124.515625 207.042969 124.722656 207.140625 124.953125 C 207.238281 125.1875 207.285156 125.429688 207.285156 125.679688 C 207.285156 125.933594 207.238281 126.175781 207.140625 126.40625 C 207.042969 126.640625 206.90625 126.847656 206.730469 127.023438 C 206.550781 127.203125 206.34375 127.339844 206.109375 127.433594 C 205.878906 127.53125 205.636719 127.578125 205.382812 127.578125 C 205.128906 127.578125 204.886719 127.53125 204.65625 127.433594 C 204.421875 127.339844 204.214844 127.203125 204.039062 127.023438 C 203.859375 126.847656 203.722656 126.640625 203.625 126.40625 C 203.527344 126.175781 203.480469 125.933594 203.480469 125.679688 C 203.480469 125.429688 203.527344 125.1875 203.625 124.953125 C 203.722656 124.722656 203.859375 124.515625 204.039062 124.339844 C 204.214844 124.160156 204.421875 124.023438 204.65625 123.925781 C 204.886719 123.832031 205.128906 123.78125 205.382812 123.78125 C 205.636719 123.78125 205.878906 123.832031 206.109375 123.925781 C 206.34375 124.023438 206.550781 124.160156 206.726562 124.339844 Z M 206.726562 124.339844 " fill-opacity="1" fill-rule="nonzero"/><path fill="#ffffff" d="M 247.453125 114.226562 C 255.902344 105.796875 255.902344 92.132812 247.453125 83.703125 C 239.007812 75.273438 225.3125 75.273438 216.863281 83.703125 C 209.351562 91.199219 208.523438 102.832031 214.371094 111.246094 C 213.109375 112.777344 213.175781 115.039062 214.613281 116.472656 C 216.050781 117.90625 218.316406 117.972656 219.851562 116.710938 C 228.28125 122.546875 239.941406 121.722656 247.453125 114.226562 Z M 218.976562 112.117188 C 212.011719 105.167969 212.011719 93.898438 218.976562 86.949219 C 225.945312 80 237.238281 80 244.203125 86.949219 C 251.167969 93.898438 251.167969 105.167969 244.203125 112.117188 C 237.238281 119.066406 225.941406 119.066406 218.976562 112.117188 Z M 218.976562 112.117188 " fill-opacity="1" fill-rule="nonzero"/><path fill="#ffffff" d="M 221.378906 143.285156 C 221.378906 143.566406 221.324219 143.835938 221.21875 144.097656 C 221.109375 144.355469 220.957031 144.585938 220.757812 144.785156 C 220.558594 144.980469 220.328125 145.136719 220.070312 145.242188 C 219.808594 145.351562 219.539062 145.402344 219.257812 145.402344 C 218.976562 145.402344 218.707031 145.351562 218.445312 145.242188 C 218.1875 145.136719 217.957031 144.980469 217.757812 144.785156 C 217.558594 144.585938 217.40625 144.355469 217.296875 144.097656 C 217.1875 143.835938 217.136719 143.566406 217.136719 143.285156 C 217.136719 143.003906 217.1875 142.734375 217.296875 142.476562 C 217.40625 142.214844 217.558594 141.988281 217.757812 141.789062 C 217.957031 141.589844 218.1875 141.4375 218.445312 141.332031 C 218.707031 141.222656 218.976562 141.167969 219.257812 141.167969 C 219.539062 141.167969 219.808594 141.222656 220.070312 141.332031 C 220.328125 141.4375 220.558594 141.589844 220.757812 141.789062 C 220.957031 141.988281 221.109375 142.214844 221.21875 142.476562 C 221.324219 142.734375 221.378906 143.003906 221.378906 143.285156 Z M 221.378906 143.285156 " fill-opacity="1" fill-rule="nonzero"/><path fill="#ffffff" d="M 213.699219 143.285156 C 213.699219 143.539062 213.652344 143.78125 213.554688 144.011719 C 213.457031 144.246094 213.320312 144.449219 213.144531 144.628906 C 212.964844 144.808594 212.757812 144.945312 212.527344 145.039062 C 212.292969 145.136719 212.050781 145.183594 211.796875 145.183594 C 211.542969 145.183594 211.300781 145.136719 211.070312 145.039062 C 210.835938 144.945312 210.628906 144.808594 210.453125 144.628906 C 210.273438 144.449219 210.136719 144.246094 210.039062 144.011719 C 209.941406 143.78125 209.894531 143.539062 209.894531 143.285156 C 209.894531 143.035156 209.941406 142.792969 210.039062 142.558594 C 210.136719 142.328125 210.273438 142.121094 210.453125 141.945312 C 210.628906 141.765625 210.835938 141.628906 211.070312 141.53125 C 211.300781 141.4375 211.542969 141.386719 211.796875 141.386719 C 212.050781 141.386719 212.292969 141.4375 212.527344 141.53125 C 212.757812 141.628906 212.964844 141.765625 213.144531 141.945312 C 213.320312 142.121094 213.457031 142.328125 213.554688 142.558594 C 213.652344 142.792969 213.699219 143.035156 213.699219 143.285156 Z M 213.699219 143.285156 " fill-opacity="1" fill-rule="nonzero"/><g clip-path="url(#250aeaa97c)"><path fill="#ffffff" d="M 249.664062 121.703125 C 239.039062 121.703125 230.210938 129.347656 228.382812 139.421875 C 226.402344 139.613281 224.847656 141.261719 224.847656 143.285156 C 224.847656 145.3125 226.402344 146.960938 228.382812 147.152344 C 230.210938 157.226562 239.039062 164.867188 249.664062 164.867188 C 261.609375 164.867188 271.296875 155.207031 271.296875 143.285156 C 271.296875 131.367188 261.609375 121.703125 249.664062 121.703125 Z M 248.859375 161.082031 C 239.007812 161.082031 231.023438 153.113281 231.023438 143.285156 C 231.023438 133.457031 239.007812 125.492188 248.859375 125.492188 C 258.707031 125.492188 266.695312 133.457031 266.695312 143.285156 C 266.695312 153.113281 258.707031 161.082031 248.859375 161.082031 Z M 248.859375 161.082031 " fill-opacity="1" fill-rule="nonzero"/></g><path fill="#ffffff" d="M 257.085938 138.308594 C 253.703125 136.773438 251.476562 138.894531 251.476562 138.894531 C 251.476562 138.894531 251.621094 135.824219 248.238281 134.289062 C 244.851562 132.753906 233.402344 134.449219 245.082031 152.917969 C 266.710938 149.570312 260.46875 139.839844 257.085938 138.308594 Z M 257.085938 138.308594 " fill-opacity="1" fill-rule="nonzero"/><path fill="#ffffff" d="M 237.332031 88.808594 C 234.730469 87.925781 231.933594 89.058594 230.632812 91.363281 C 230.457031 91.28125 230.273438 91.207031 230.085938 91.144531 C 227.21875 90.171875 224.105469 91.703125 223.132812 94.566406 C 222.160156 97.425781 223.695312 100.53125 226.5625 101.5 C 226.621094 101.523438 226.679688 101.535156 226.738281 101.550781 L 223.289062 107.882812 L 223.988281 108.308594 L 229.644531 99.097656 L 228.4375 98.4375 L 227.210938 100.6875 C 225.09375 99.738281 224.003906 97.320312 224.765625 95.082031 C 225.542969 92.796875 227.964844 91.535156 230.269531 92.15625 C 230.25 92.210938 230.226562 92.261719 230.207031 92.3125 C 229.828125 93.425781 229.820312 94.570312 230.113281 95.621094 C 230.089844 95.050781 230.160156 94.46875 230.355469 93.898438 C 231.1875 91.449219 233.851562 90.136719 236.308594 90.96875 C 238.761719 91.800781 240.078125 94.460938 239.246094 96.910156 C 238.851562 98.070312 238.039062 98.972656 237.039062 99.515625 C 237.644531 99.34375 238.21875 99.070312 238.734375 98.714844 C 239.355469 99.804688 239.53125 101.140625 239.09375 102.421875 C 238.285156 104.800781 235.699219 106.074219 233.316406 105.269531 C 232.488281 104.988281 231.796875 104.488281 231.277344 103.863281 L 233.175781 102.082031 L 232.226562 101.085938 L 224.730469 108.882812 L 225.324219 109.449219 L 230.273438 104.808594 C 230.949219 105.753906 231.914062 106.507812 233.101562 106.910156 C 236.109375 107.929688 239.378906 106.320312 240.398438 103.316406 C 241.035156 101.449219 240.652344 99.488281 239.550781 98.023438 C 240.117188 97.441406 240.570312 96.734375 240.847656 95.917969 C 241.84375 92.984375 240.269531 89.800781 237.332031 88.808594 Z M 237.332031 88.808594 " fill-opacity="1" fill-rule="nonzero"/><path fill="#ffffff" d="M 141.203125 97.023438 C 142.355469 93.695312 139.671875 90.105469 139.558594 89.957031 L 138.695312 90.609375 C 138.71875 90.640625 141.144531 93.882812 140.179688 96.671875 C 139.601562 98.332031 137.917969 99.539062 135.164062 100.257812 L 135.441406 101.304688 C 138.566406 100.488281 140.503906 99.046875 141.203125 97.023438 Z M 141.203125 97.023438 " fill-opacity="1" fill-rule="nonzero"/><path fill="#ffffff" d="M 145.328125 95.898438 C 146.113281 96.335938 146.988281 96.550781 147.953125 96.550781 C 149.320312 96.550781 150.871094 96.113281 152.582031 95.230469 L 152.085938 94.269531 C 149.511719 95.589844 147.417969 95.820312 145.863281 94.953125 C 143.238281 93.492188 142.886719 89.332031 142.882812 89.289062 L 141.800781 89.371094 C 141.8125 89.5625 142.195312 94.148438 145.328125 95.898438 Z M 145.328125 95.898438 " fill-opacity="1" fill-rule="nonzero"/><path fill="#ffffff" d="M 153.175781 98.59375 L 152.988281 97.527344 C 149.738281 98.097656 147.699219 99.378906 146.929688 101.328125 C 145.609375 104.671875 148.570312 108.648438 148.699219 108.8125 L 149.5625 108.160156 C 149.535156 108.125 146.839844 104.5 147.9375 101.722656 C 148.5625 100.148438 150.324219 99.09375 153.175781 98.59375 Z M 153.175781 98.59375 " fill-opacity="1" fill-rule="nonzero"/><path fill="#ffffff" d="M 143.015625 102.53125 C 141.140625 101.519531 138.703125 101.890625 135.773438 103.628906 L 136.328125 104.558594 C 138.90625 103.03125 140.980469 102.667969 142.496094 103.480469 C 145.125 104.890625 145.371094 109.421875 145.375 109.464844 L 146.457031 109.417969 C 146.449219 109.207031 146.183594 104.234375 143.015625 102.53125 Z M 143.015625 102.53125 " fill-opacity="1" fill-rule="nonzero"/><path fill="#ffffff" d="M 118.425781 147.707031 C 118.425781 151.8125 122.070312 155.136719 126.5625 155.136719 C 131.054688 155.136719 134.695312 151.8125 134.695312 147.707031 C 134.695312 143.601562 126.5625 132.253906 126.5625 132.253906 C 126.5625 132.253906 118.425781 143.601562 118.425781 147.707031 Z M 126.195312 152.710938 C 123.769531 152.710938 120.941406 150.464844 120.941406 147.707031 C 120.941406 147.164062 121.273438 146.347656 121.769531 145.207031 L 122.554688 145.527344 C 122 146.800781 121.726562 147.414062 121.726562 147.707031 C 121.726562 150.019531 123.769531 151.902344 126.195312 151.902344 Z M 126.195312 152.710938 " fill-opacity="1" fill-rule="nonzero"/><g clip-path="url(#f4742b19f5)"><path fill="#12100e" d="M 56.25 0.84375 L 318.75 0.84375 C 320.59375 0.84375 322.429688 0.933594 324.261719 1.113281 C 326.097656 1.292969 327.917969 1.5625 329.722656 1.921875 C 331.53125 2.28125 333.316406 2.730469 335.078125 3.265625 C 336.839844 3.800781 338.574219 4.417969 340.277344 5.125 C 341.976562 5.828125 343.640625 6.617188 345.265625 7.484375 C 346.890625 8.351562 348.46875 9.300781 350 10.324219 C 351.53125 11.347656 353.011719 12.441406 354.433594 13.609375 C 355.859375 14.78125 357.222656 16.015625 358.523438 17.316406 C 359.828125 18.621094 361.0625 19.984375 362.230469 21.40625 C 363.402344 22.832031 364.496094 24.308594 365.519531 25.84375 C 366.542969 27.375 367.488281 28.953125 368.359375 30.578125 C 369.226562 32.203125 370.011719 33.863281 370.71875 35.566406 C 371.421875 37.269531 372.042969 39 372.578125 40.765625 C 373.113281 42.527344 373.558594 44.3125 373.917969 46.117188 C 374.277344 47.925781 374.546875 49.746094 374.730469 51.578125 C 374.910156 53.414062 375 55.25 375 57.09375 L 375 319.59375 C 375 321.433594 374.910156 323.273438 374.730469 325.105469 C 374.546875 326.941406 374.277344 328.757812 373.917969 330.566406 C 373.558594 332.375 373.113281 334.15625 372.578125 335.921875 C 372.042969 337.683594 371.421875 339.417969 370.71875 341.117188 C 370.011719 342.820312 369.226562 344.484375 368.359375 346.109375 C 367.488281 347.734375 366.542969 349.3125 365.519531 350.84375 C 364.496094 352.375 363.402344 353.851562 362.230469 355.277344 C 361.0625 356.703125 359.828125 358.066406 358.523438 359.367188 C 357.222656 360.671875 355.859375 361.90625 354.433594 363.074219 C 353.011719 364.242188 351.53125 365.339844 350 366.363281 C 348.46875 367.386719 346.890625 368.332031 345.265625 369.199219 C 343.640625 370.070312 341.976562 370.855469 340.277344 371.5625 C 338.574219 372.265625 336.839844 372.886719 335.078125 373.421875 C 333.316406 373.957031 331.53125 374.402344 329.722656 374.761719 C 327.917969 375.121094 326.097656 375.390625 324.261719 375.570312 C 322.429688 375.753906 320.59375 375.84375 318.75 375.84375 L 56.25 375.84375 C 54.40625 375.84375 52.570312 375.753906 50.738281 375.570312 C 48.902344 375.390625 47.082031 375.121094 45.277344 374.761719 C 43.46875 374.402344 41.683594 373.957031 39.921875 373.421875 C 38.160156 372.886719 36.425781 372.265625 34.722656 371.5625 C 33.023438 370.855469 31.359375 370.070312 29.734375 369.199219 C 28.109375 368.332031 26.53125 367.386719 25 366.363281 C 23.46875 365.339844 21.988281 364.242188 20.566406 363.074219 C 19.140625 361.90625 17.777344 360.671875 16.476562 359.367188 C 15.171875 358.066406 13.9375 356.703125 12.769531 355.277344 C 11.597656 353.851562 10.503906 352.375 9.480469 350.84375 C 8.457031 349.3125 7.511719 347.734375 6.640625 346.109375 C 5.773438 344.484375 4.988281 342.820312 4.28125 341.117188 C 3.578125 339.417969 2.957031 337.683594 2.421875 335.921875 C 1.886719 334.15625 1.441406 332.375 1.082031 330.566406 C 0.722656 328.757812 0.453125 326.941406 0.269531 325.105469 C 0.0898438 323.273438 0 321.433594 0 319.59375 L 0 57.09375 C 0 55.25 0.0898438 53.414062 0.269531 51.578125 C 0.453125 49.746094 0.722656 47.925781 1.082031 46.117188 C 1.441406 44.3125 1.886719 42.527344 2.421875 40.765625 C 2.957031 39 3.578125 37.269531 4.28125 35.566406 C 4.988281 33.863281 5.773438 32.203125 6.640625 30.578125 C 7.511719 28.953125 8.457031 27.375 9.480469 25.84375 C 10.503906 24.308594 11.597656 22.832031 12.769531 21.40625 C 13.9375 19.984375 15.171875 18.621094 16.476562 17.316406 C 17.777344 16.015625 19.140625 14.78125 20.566406 13.609375 C 21.988281 12.441406 23.46875 11.347656 25 10.324219 C 26.53125 9.300781 28.109375 8.351562 29.734375 7.484375 C 31.359375 6.617188 33.023438 5.828125 34.722656 5.125 C 36.425781 4.417969 38.160156 3.800781 39.921875 3.265625 C 41.683594 2.730469 43.46875 2.28125 45.277344 1.921875 C 47.082031 1.5625 48.902344 1.292969 50.738281 1.113281 C 52.570312 0.933594 54.40625 0.84375 56.25 0.84375 Z M 56.25 0.84375 " fill-opacity="1" fill-rule="nonzero"/></g><path fill="#ffffff" d="M 91.550781 127.550781 C 91.550781 124.621094 90.085938 120.960938 87.890625 119.496094 L 65.183594 91.664062 L 65.183594 87.269531 L 136.960938 87.269531 L 191.894531 208.851562 L 240.964844 87.269531 L 309.082031 87.269531 L 309.082031 91.664062 L 289.304688 110.707031 C 287.839844 111.4375 287.109375 113.636719 287.109375 115.832031 L 287.109375 254.992188 C 287.109375 257.191406 287.839844 259.386719 289.304688 260.851562 L 309.082031 279.164062 L 309.082031 283.558594 L 211.667969 283.558594 L 211.667969 279.164062 L 231.445312 260.121094 C 233.640625 257.921875 233.640625 257.191406 233.640625 254.261719 L 233.640625 142.199219 L 177.976562 282.824219 L 170.652344 282.824219 L 106.199219 142.199219 L 106.199219 236.683594 C 105.46875 240.34375 106.933594 244.738281 109.863281 247.667969 L 135.496094 279.164062 L 135.496094 282.824219 L 62.257812 282.824219 L 62.257812 279.164062 L 87.890625 247.667969 C 90.820312 244.738281 92.285156 240.34375 91.550781 236.683594 Z M 91.550781 127.550781 " fill-opacity="1" fill-rule="nonzero"/></svg>